<svg width="512" height="512" viewBox="0 0 512 512" fill="none" xmlns="http://www.w3.org/2000/svg">
<g id="Type=Default, showSymbol=True, showText=True">
<g id="text">
<path d="M134.112 6H111.577V73.4258H134.113V50.8477H154.729V73.4258H177.265V6H154.728V28.2656H134.112V6Z" fill="black"/>
<path d="M187.061 28.3594H206.9L206.901 73.4258H229.438V28.3594H249.287V6H187.061V28.3594Z" fill="black"/>
<path d="M259.163 6H282.662L297.117 29.6914L311.558 6H335.065V73.4258H312.622V40.0059L297.117 63.9795H296.729L281.214 40.0059V73.4258H259.163V6Z" fill="black"/>
<path d="M368.824 6H346.281V73.4258H400.517V51.1387H368.824V6Z" fill="black"/>
</g>
<g id="symbol">
<path id="Shape" fill-rule="evenodd" clip-rule="evenodd" d="M110.855 465.841L78.6182 104.262H432.851L400.579 465.784L255.518 506L110.855 465.841Z" fill="#E44D26"/>
<path id="Shape_2" fill-rule="evenodd" clip-rule="evenodd" d="M255.734 475.261L372.951 442.764L400.529 133.826H255.734V475.261Z" fill="#F16529"/>
<g id="Union">
<path d="M197.053 267.931H255.734V312.276H156.496L144.535 178.173H255.734V222.52H193L197.053 267.931Z" fill="#EBEBEB"/>
<path d="M255.54 383.154L255.734 383.103V429.241L255.53 429.298L164.69 404.08L158.478 334.45H202.994L206.151 369.818L255.54 383.154Z" fill="#EBEBEB"/>
</g>
<g id="Union_2">
<path d="M255.581 178.173H366.669L362.698 222.52H255.581V178.173Z" fill="white"/>
<path d="M255.581 312.276V267.931H358.663L357.581 279.839L346.493 404.08L255.581 429.276V383.14L305.041 369.79L310.188 312.276H255.581Z" fill="white"/>
</g>
</g>
</g>
</svg>
